<?xml version="1.0" encoding="utf-8"?><svg xmlns="http://www.w3.org/2000/svg" xmlns:xlink="http://www.w3.org/1999/xlink" width="1366" height="635" preserveAspectRatio="xMidYMid" viewBox="0 0 1366 635" style="z-index:1;margin-right:-2px;display:block;background-repeat-y:initial;background-repeat-x:initial;background-color:rgb(153, 204, 255);animation-play-state:paused" ><g transform="translate(683,317.5) scale(1,1) translate(-683,-317.5)" style="transform:matrix(1, 0, 0, 1, 0, 0);animation-play-state:paused" ><defs style="animation-play-state:paused" ><linearGradient id="lg-0.26491500974208115" x1="0" x2="0" y1="0" y2="1" style="animation-play-state:paused" ><stop stop-color="#1438b3" offset="0" style="animation-play-state:paused" ></stop>

  
<stop stop-color="#e9f6ff" offset="1" style="animation-play-state:paused" ></stop></linearGradient></defs>


<rect x="0" y="0" width="1366" height="635" fill="url(#lg-0.26491500974208115)" style="animation-play-state:paused" ></rect>
<circle cx="0" cy="205.68240086655987" r="47.764665944533434" fill="#3184ce" transform="matrix(1,0,0,1,0,0)" style="transform:matrix(1, 0, 0, 1, 0, 0);animation-play-state:paused" ></circle>
<circle cx="47.764665944533434" cy="219.69102705391856" r="38.80455391407063" fill="#3184ce" transform="matrix(1,0,0,1,-0.005429744720458984,0)" style="transform:matrix(1, 0, 0, 1, -0.00542974, 0);animation-play-state:paused" ></circle>
<circle cx="86.56921985860407" cy="203.8009151287343" r="56.49296939019064" fill="#3184ce" transform="matrix(1,0,0,1,-0.022117653861641884,0)" style="transform:matrix(1, 0, 0, 1, -0.0221177, 0);animation-play-state:paused" ></circle>
<circle cx="143.0621892487947" cy="176.47241462655927" r="91.21164763993471" fill="#3184ce" transform="matrix(1,0,0,1,-0.05069183558225632,0)" style="transform:matrix(1, 0, 0, 1, -0.0506918, 0);animation-play-state:paused" ></circle>
<circle cx="234.27383688872942" cy="202.10202281578034" r="77.24332015846846" fill="#3184ce" transform="matrix(1,0,0,1,-0.09182170033454895,0)" style="transform:matrix(1, 0, 0, 1, -0.0918217, 0);animation-play-state:paused" ></circle>
<circle cx="311.5171570471979" cy="239.53385558897514" r="35.95360444584133" fill="#3184ce" transform="matrix(1,0,0,1,-0.14621886610984802,0)" style="transform:matrix(1, 0, 0, 1, -0.146219, 0);animation-play-state:paused" ></circle>
<circle cx="347.4707614930392" cy="225.87563652058589" r="62.97498932648611" fill="#3184ce" transform="matrix(1,0,0,1,-0.21463720500469208,0)" style="transform:matrix(1, 0, 0, 1, -0.214637, 0);animation-play-state:paused" ></circle>
<circle cx="410.4457508195253" cy="218.54981070854126" r="92.82396494567054" fill="#3184ce" transform="matrix(1,0,0,1,-0.2978716492652893,0)" style="transform:matrix(1, 0, 0, 1, -0.297872, 0);animation-play-state:paused" ></circle>
<circle cx="503.2697157651958" cy="244.3109901797324" r="59.184023816518604" fill="#3184ce" transform="matrix(1,0,0,1,-0.3967548906803131,0)" style="transform:matrix(1, 0, 0, 1, -0.396755, 0);animation-play-state:paused" ></circle>
<circle cx="562.4537395817144" cy="250.2510562002088" r="60.19493114816793" fill="#3184ce" transform="matrix(1,0,0,1,-0.5121519565582275,0)" style="transform:matrix(1, 0, 0, 1, -0.512152, 0);animation-play-state:paused" ></circle>
<circle cx="622.6486707298824" cy="259.711691564939" r="31.01167072192826" fill="#3184ce" transform="matrix(1,0,0,1,-0.6449503302574158,0)" style="transform:matrix(1, 0, 0, 1, -0.64495, 0);animation-play-state:paused" ></circle>
<circle cx="653.6603414518106" cy="258.23916566592357" r="92.35650115109173" fill="#3184ce" transform="matrix(1,0,0,1,-0.7960466146469116,0)" style="transform:matrix(1, 0, 0, 1, -0.796047, 0);animation-play-state:paused" ></circle>
<circle cx="746.0168426029023" cy="256.71464004585454" r="56.76922591066731" fill="#3184ce" transform="matrix(1,0,0,1,-0.9663257002830505,0)" style="transform:matrix(1, 0, 0, 1, -0.966326, 0);animation-play-state:paused" ></circle>
<circle cx="802.7860685135696" cy="246.46973301711913" r="78.54399993677528" fill="#3184ce" transform="matrix(1,0,0,1,-1.156632423400879,0)" style="transform:matrix(1, 0, 0, 1, -1.15663, 0);animation-play-state:paused" ></circle>
<circle cx="881.3300684503449" cy="249.15460501444124" r="39.73344724875556" fill="#3184ce" transform="matrix(1,0,0,1,-1.3677335977554321,0)" style="transform:matrix(1, 0, 0, 1, -1.36773, 0);animation-play-state:paused" ></circle>
<circle cx="921.0635156991004" cy="235.27286903056714" r="66.29053874029569" fill="#3184ce" transform="matrix(1,0,0,1,-1.600266933441162,0)" style="transform:matrix(1, 0, 0, 1, -1.60027, 0);animation-play-state:paused" ></circle>
<circle cx="987.3540544393961" cy="232.43801464378225" r="57.15338132739631" fill="#3184ce" transform="matrix(1,0,0,1,-1.8546782732009888,0)" style="transform:matrix(1, 0, 0, 1, -1.85468, 0);animation-play-state:paused" ></circle>
<circle cx="1044.5074357667925" cy="229.10247507060234" r="53.3691408902626" fill="#3184ce" transform="matrix(1,0,0,1,-2.131143569946289,0)" style="transform:matrix(1, 0, 0, 1, -2.13114, 0);animation-play-state:paused" ></circle>
<circle cx="1097.876576657055" cy="200.5837392549793" r="85.62849067135167" fill="#3184ce" transform="matrix(1,0,0,1,-2.4294803142547607,0)" style="transform:matrix(1, 0, 0, 1, -2.42948, 0);animation-play-state:paused" ></circle>
<circle cx="1183.5050673284068" cy="205.90341105097352" r="64.92936302047666" fill="#3184ce" transform="matrix(1,0,0,1,-2.749046802520752,0)" style="transform:matrix(1, 0, 0, 1, -2.74905, 0);animation-play-state:paused" ></circle>
<circle cx="1248.4344303488833" cy="208.74477914658144" r="54.61334072520201" fill="#3184ce" transform="matrix(1,0,0,1,-3.0886495113372803,0)" style="transform:matrix(1, 0, 0, 1, -3.08865, 0);animation-play-state:paused" ></circle>
<circle cx="1303.0477710740854" cy="164.11381780637566" r="90.77158458459002" fill="#3184ce" transform="matrix(1,0,0,1,-3.446460723876953,0)" style="transform:matrix(1, 0, 0, 1, -3.44646, 0);animation-play-state:paused" ></circle>
<circle cx="1393.8193556586755" cy="158.53918659724764" r="83.6437731871259" fill="#3184ce" transform="matrix(1,0,0,1,-3.819972276687622,0)" style="transform:matrix(1, 0, 0, 1, -3.81997, 0);animation-play-state:paused" ></circle>
<circle cx="0" cy="214.98476650399732" r="91.67936124666889" fill="#6593d6" transform="matrix(1,0,0,1,0,0)" style="transform:matrix(1, 0, 0, 1, 0, 0);animation-play-state:paused" ></circle>
<circle cx="91.67936124666889" cy="273.2414707730916" r="49.81938329390466" fill="#6593d6" transform="matrix(1,0,0,1,-0.022117653861641884,0)" style="transform:matrix(1, 0, 0, 1, -0.0221177, 0);animation-play-state:paused" ></circle>
<circle cx="141.49874454057354" cy="269.10750874762994" r="58.748050197624934" fill="#6593d6" transform="matrix(1,0,0,1,-0.09182170033454895,0)" style="transform:matrix(1, 0, 0, 1, -0.0918217, 0);animation-play-state:paused" ></circle>
<circle cx="200.24679473819847" cy="295.2913617232716" r="35.02652377005192" fill="#6593d6" transform="matrix(1,0,0,1,-0.21463720500469208,0)" style="transform:matrix(1, 0, 0, 1, -0.214637, 0);animation-play-state:paused" ></circle>
<circle cx="235.27331850825038" cy="263.56533732369434" r="78.09800849205881" fill="#6593d6" transform="matrix(1,0,0,1,-0.3967548906803131,0)" style="transform:matrix(1, 0, 0, 1, -0.396755, 0);animation-play-state:paused" ></circle>
<circle cx="313.3713270003092" cy="291.0990208158114" r="52.20186833021159" fill="#6593d6" transform="matrix(1,0,0,1,-0.6449503302574158,0)" style="transform:matrix(1, 0, 0, 1, -0.64495, 0);animation-play-state:paused" ></circle>
<circle cx="365.5731953305208" cy="286.93423158057954" r="68.25436984739298" fill="#6593d6" transform="matrix(1,0,0,1,-0.9663257002830505,0)" style="transform:matrix(1, 0, 0, 1, -0.966326, 0);animation-play-state:paused" ></circle>
<circle cx="433.82756517791375" cy="309.97836801424944" r="34.3128332446875" fill="#6593d6" transform="matrix(1,0,0,1,-1.3677335977554321,0)" style="transform:matrix(1, 0, 0, 1, -1.36773, 0);animation-play-state:paused" ></circle>
<circle cx="468.14039842260127" cy="290.19441856082386" r="92.20056550274707" fill="#6593d6" transform="matrix(1,0,0,1,-1.8546782732009888,0)" style="transform:matrix(1, 0, 0, 1, -1.85468, 0);animation-play-state:paused" ></circle>
<circle cx="560.3409639253483" cy="316.31349830981424" r="40.30740310879646" fill="#6593d6" transform="matrix(1,0,0,1,-2.4294803142547607,0)" style="transform:matrix(1, 0, 0, 1, -2.42948, 0);animation-play-state:paused" ></circle>
<circle cx="600.6483670341448" cy="313.5200691949438" r="79.34261549600313" fill="#6593d6" transform="matrix(1,0,0,1,-3.0886495113372803,0)" style="transform:matrix(1, 0, 0, 1, -3.08865, 0);animation-play-state:paused" ></circle>
<circle cx="679.9909825301479" cy="324.5616044611002" r="82.92412059987011" fill="#6593d6" transform="matrix(1,0,0,1,-3.819972276687622,0)" style="transform:matrix(1, 0, 0, 1, -3.81997, 0);animation-play-state:paused" ></circle>
<circle cx="762.915103130018" cy="314.2856007834832" r="76.30946652823836" fill="#6593d6" transform="matrix(1,0,0,1,-4.60075569152832,0)" style="transform:matrix(1, 0, 0, 1, -4.60076, 0);animation-play-state:paused" ></circle>
<circle cx="839.2245696582563" cy="310.5886214815402" r="52.5043934597895" fill="#6593d6" transform="matrix(1,0,0,1,-5.399243354797363,0)" style="transform:matrix(1, 0, 0, 1, -5.39924, 0);animation-play-state:paused" ></circle>
<circle cx="891.7289631180458" cy="313.5128839342284" r="31.323317392568825" fill="#6593d6" transform="matrix(1,0,0,1,-6.180027961730957,0)" style="transform:matrix(1, 0, 0, 1, -6.18003, 0);animation-play-state:paused" ></circle>
<circle cx="923.0522805106147" cy="295.3113890081283" r="70.39203177017843" fill="#6593d6" transform="matrix(1,0,0,1,-6.911351203918457,0)" style="transform:matrix(1, 0, 0, 1, -6.91135, 0);animation-play-state:paused" ></circle>
<circle cx="993.444312280793" cy="289.3428816952743" r="65.37353839513504" fill="#6593d6" transform="matrix(1,0,0,1,-7.57051944732666,0)" style="transform:matrix(1, 0, 0, 1, -7.57052, 0);animation-play-state:paused" ></circle>
<circle cx="1058.8178506759282" cy="295.17555637159603" r="45.16836849190648" fill="#6593d6" transform="matrix(1,0,0,1,-8.1453218460083,0)" style="transform:matrix(1, 0, 0, 1, -8.14532, 0);animation-play-state:paused" ></circle>
<circle cx="1103.9862191678346" cy="269.9044306832023" r="74.48833265404895" fill="#6593d6" transform="matrix(1,0,0,1,-8.632266998291016,0)" style="transform:matrix(1, 0, 0, 1, -8.63227, 0);animation-play-state:paused" ></circle>
<circle cx="1178.4745518218836" cy="253.9764884391015" r="81.58686491856403" fill="#6593d6" transform="matrix(1,0,0,1,-9.033674240112305,0)" style="transform:matrix(1, 0, 0, 1, -9.03367, 0);animation-play-state:paused" ></circle>
<circle cx="1260.0614167404476" cy="287.1112417598669" r="37.37040392249152" fill="#6593d6" transform="matrix(1,0,0,1,-9.355050086975098,0)" style="transform:matrix(1, 0, 0, 1, -9.35505, 0);animation-play-state:paused" ></circle>
<circle cx="1297.4318206629391" cy="227.19968714373437" r="90.5953698936013" fill="#6593d6" transform="matrix(1,0,0,1,-9.60324478149414,0)" style="transform:matrix(1, 0, 0, 1, -9.60324, 0);animation-play-state:paused" ></circle>
<circle cx="1388.0271905565405" cy="248.68141490587692" r="61.611800600837704" fill="#6593d6" transform="matrix(1,0,0,1,-9.785362243652344,0)" style="transform:matrix(1, 0, 0, 1, -9.78536, 0);animation-play-state:paused" ></circle>
<circle cx="0" cy="329.8716655712068" r="47.60694535732769" fill="#89a2dd" transform="matrix(1,0,0,1,0,0)" style="transform:matrix(1, 0, 0, 1, 0, 0);animation-play-state:paused" ></circle>
<circle cx="47.60694535732769" cy="289.758783278127" r="87.10586113555291" fill="#89a2dd" transform="matrix(1,0,0,1,-0.05069185048341751,0)" style="transform:matrix(1, 0, 0, 1, -0.0506919, 0);animation-play-state:paused" ></circle>
<circle cx="134.7128064928806" cy="347.1729456832355" r="41.34371916226559" fill="#89a2dd" transform="matrix(1,0,0,1,-0.21463724970817566,0)" style="transform:matrix(1, 0, 0, 1, -0.214637, 0);animation-play-state:paused" ></circle>
<circle cx="176.05652565514617" cy="348.0460197288717" r="43.73526483000923" fill="#89a2dd" transform="matrix(1,0,0,1,-0.5121520161628723,0)" style="transform:matrix(1, 0, 0, 1, -0.512152, 0);animation-play-state:paused" ></circle>
<circle cx="219.7917904851554" cy="328.3669115457905" r="72.04535417627297" fill="#89a2dd" transform="matrix(1,0,0,1,-0.9663259983062744,0)" style="transform:matrix(1, 0, 0, 1, -0.966326, 0);animation-play-state:paused" ></circle>
<circle cx="291.83714466142834" cy="335.3323462011248" r="75.17970043893723" fill="#89a2dd" transform="matrix(1,0,0,1,-1.6002674102783203,0)" style="transform:matrix(1, 0, 0, 1, -1.60027, 0);animation-play-state:paused" ></circle>
<circle cx="367.0168451003656" cy="356.3832348920532" r="55.148642800725916" fill="#89a2dd" transform="matrix(1,0,0,1,-2.429480791091919,0)" style="transform:matrix(1, 0, 0, 1, -2.42948, 0);animation-play-state:paused" ></circle>
<circle cx="422.16548790109147" cy="352.43936438475464" r="75.4147202865214" fill="#89a2dd" transform="matrix(1,0,0,1,-3.4464619159698486,0)" style="transform:matrix(1, 0, 0, 1, -3.44646, 0);animation-play-state:paused" ></circle>
<circle cx="497.58020818761287" cy="369.29360217707426" r="54.35175678411757" fill="#89a2dd" transform="matrix(1,0,0,1,-4.600757122039795,0)" style="transform:matrix(1, 0, 0, 1, -4.60076, 0);animation-play-state:paused" ></circle>
<circle cx="551.9319649717304" cy="365.6073772459164" r="92.89807222312493" fill="#89a2dd" transform="matrix(1,0,0,1,-5.794002532958984,0)" style="transform:matrix(1, 0, 0, 1, -5.794, 0);animation-play-state:paused" ></circle>
<circle cx="644.8300371948553" cy="383.0455781654986" r="58.96587077191661" fill="#89a2dd" transform="matrix(1,0,0,1,-6.911351680755615,0)" style="transform:matrix(1, 0, 0, 1, -6.91135, 0);animation-play-state:paused" ></circle>
<circle cx="703.7959079667719" cy="384.3064539997952" r="73.72010882619206" fill="#89a2dd" transform="matrix(1,0,0,1,-7.868857383728027,0)" style="transform:matrix(1, 0, 0, 1, -7.86886, 0);animation-play-state:paused" ></circle>
<circle cx="777.5160167929639" cy="376.4815740289062" r="63.34098337704421" fill="#89a2dd" transform="matrix(1,0,0,1,-8.632266998291016,0)" style="transform:matrix(1, 0, 0, 1, -8.63227, 0);animation-play-state:paused" ></circle>
<circle cx="840.8570001700082" cy="368.1928576362702" r="67.8107307066596" fill="#89a2dd" transform="matrix(1,0,0,1,-9.203954696655273,0)" style="transform:matrix(1, 0, 0, 1, -9.20395, 0);animation-play-state:paused" ></circle>
<circle cx="908.6677308766677" cy="350.2257974663609" r="92.74985924697977" fill="#89a2dd" transform="matrix(1,0,0,1,-9.603245735168457,0)" style="transform:matrix(1, 0, 0, 1, -9.60325, 0);animation-play-state:paused" ></circle>
<circle cx="1001.4175901236475" cy="338.1355779407712" r="87.34442155423787" fill="#89a2dd" transform="matrix(1,0,0,1,-9.853781700134277,0)" style="transform:matrix(1, 0, 0, 1, -9.85378, 0);animation-play-state:paused" ></circle>
<circle cx="1088.7620116778853" cy="353.4031680949295" r="47.12663156143228" fill="#89a2dd" transform="matrix(1,0,0,1,-9.977882385253906,0)" style="transform:matrix(1, 0, 0, 1, -9.97788, 0);animation-play-state:paused" ></circle>
<circle cx="1135.8886432393176" cy="337.81518825948467" r="61.81288881245743" fill="#89a2dd" transform="matrix(1,0,0,1,-9.994569778442383,0)" style="transform:matrix(1, 0, 0, 1, -9.99457, 0);animation-play-state:paused" ></circle>
<circle cx="1197.701532051775" cy="310.9461975850736" r="84.10172986132588" fill="#89a2dd" transform="matrix(1,0,0,1,-9.908178329467773,0)" style="transform:matrix(1, 0, 0, 1, -9.90818, 0);animation-play-state:paused" ></circle>
<circle cx="1281.8032619131009" cy="326.00923582041185" r="57.97214570047994" fill="#89a2dd" transform="matrix(1,0,0,1,-9.702127456665039,0)" style="transform:matrix(1, 0, 0, 1, -9.70213, 0);animation-play-state:paused" ></circle>
<circle cx="1339.775407613581" cy="316.4441736191832" r="61.14422685373883" fill="#89a2dd" transform="matrix(1,0,0,1,-9.355048179626465,0)" style="transform:matrix(1, 0, 0, 1, -9.35505, 0);animation-play-state:paused" ></circle>
<circle cx="1400.9196344673198" cy="279.9958666215596" r="84.8328740301846" fill="#89a2dd" transform="matrix(1,0,0,1,-8.843366622924805,0)" style="transform:matrix(1, 0, 0, 1, -8.84337, 0);animation-play-state:paused" ></circle>
<circle cx="0" cy="399.4137698260022" r="41.32185847833152" fill="#a7b2e4" transform="matrix(1,0,0,1,0,0)" style="transform:matrix(1, 0, 0, 1, 0, 0);animation-play-state:paused" ></circle>
<circle cx="41.32185847833152" cy="359.46077071772606" r="79.42103894273502" fill="#a7b2e4" transform="matrix(1,0,0,1,-0.09182170033454895,0)" style="transform:matrix(1, 0, 0, 1, -0.0918217, 0);animation-play-state:paused" ></circle>
<circle cx="120.74289742106654" cy="398.8338141537716" r="50.7826769044147" fill="#a7b2e4" transform="matrix(1,0,0,1,-0.3967548906803131,0)" style="transform:matrix(1, 0, 0, 1, -0.396755, 0);animation-play-state:paused" ></circle>
<circle cx="171.52557432548124" cy="388.1466279945055" r="67.7173855840736" fill="#a7b2e4" transform="matrix(1,0,0,1,-0.9663257002830505,0)" style="transform:matrix(1, 0, 0, 1, -0.966326, 0);animation-play-state:paused" ></circle>
<circle cx="239.24295990955483" cy="415.5559817432723" r="42.89559076570628" fill="#a7b2e4" transform="matrix(1,0,0,1,-1.8546782732009888,0)" style="transform:matrix(1, 0, 0, 1, -1.85468, 0);animation-play-state:paused" ></circle>
<circle cx="282.1385506752611" cy="386.7978669708715" r="88.31824755257335" fill="#a7b2e4" transform="matrix(1,0,0,1,-3.0886495113372803,0)" style="transform:matrix(1, 0, 0, 1, -3.08865, 0);animation-play-state:paused" ></circle>
<circle cx="370.4567982278345" cy="418.34766473278796" r="55.82040303761272" fill="#a7b2e4" transform="matrix(1,0,0,1,-4.60075569152832,0)" style="transform:matrix(1, 0, 0, 1, -4.60076, 0);animation-play-state:paused" ></circle>
<circle cx="426.2772012654472" cy="418.193753363245" r="68.29891539505546" fill="#a7b2e4" transform="matrix(1,0,0,1,-6.180027961730957,0)" style="transform:matrix(1, 0, 0, 1, -6.18003, 0);animation-play-state:paused" ></circle>
<circle cx="494.5761166605027" cy="428.9135607700862" r="60.67453583415306" fill="#a7b2e4" transform="matrix(1,0,0,1,-7.57051944732666,0)" style="transform:matrix(1, 0, 0, 1, -7.57052, 0);animation-play-state:paused" ></circle>
<circle cx="555.2506524946557" cy="440.0433850690529" r="39.904756966768815" fill="#a7b2e4" transform="matrix(1,0,0,1,-8.632266998291016,0)" style="transform:matrix(1, 0, 0, 1, -8.63227, 0);animation-play-state:paused" ></circle>
<circle cx="595.1554094614245" cy="438.1825307465707" r="70.08903882407841" fill="#a7b2e4" transform="matrix(1,0,0,1,-9.355050086975098,0)" style="transform:matrix(1, 0, 0, 1, -9.35505, 0);animation-play-state:paused" ></circle>
<circle cx="665.2444482855029" cy="446.9290908431468" r="66.38444587521398" fill="#a7b2e4" transform="matrix(1,0,0,1,-9.785362243652344,0)" style="transform:matrix(1, 0, 0, 1, -9.78536, 0);animation-play-state:paused" ></circle>
<circle cx="731.6288941607169" cy="445.89476808286616" r="36.3445340472031" fill="#a7b2e4" transform="matrix(1,0,0,1,-9.977882385253906,0)" style="transform:matrix(1, 0, 0, 1, -9.97788, 0);animation-play-state:paused" ></circle>
<circle cx="767.9734282079199" cy="436.31562474743737" r="84.96213149815385" fill="#a7b2e4" transform="matrix(1,0,0,1,-9.977882385253906,0)" style="transform:matrix(1, 0, 0, 1, -9.97788, 0);animation-play-state:paused" ></circle>
<circle cx="852.9355597060738" cy="431.9095177492303" r="57.2413027103987" fill="#a7b2e4" transform="matrix(1,0,0,1,-9.78536319732666,0)" style="transform:matrix(1, 0, 0, 1, -9.78536, 0);animation-play-state:paused" ></circle>
<circle cx="910.1768624164725" cy="421.3799337682664" r="69.19904105995111" fill="#a7b2e4" transform="matrix(1,0,0,1,-9.355049133300781,0)" style="transform:matrix(1, 0, 0, 1, -9.35505, 0);animation-play-state:paused" ></circle>
<circle cx="979.3759034764237" cy="416.9970921659793" r="61.45907329803916" fill="#a7b2e4" transform="matrix(1,0,0,1,-8.632266998291016,0)" style="transform:matrix(1, 0, 0, 1, -8.63227, 0);animation-play-state:paused" ></circle>
<circle cx="1040.8349767744628" cy="423.5923188662775" r="40.413056624492754" fill="#a7b2e4" transform="matrix(1,0,0,1,-7.57051944732666,0)" style="transform:matrix(1, 0, 0, 1, -7.57052, 0);animation-play-state:paused" ></circle>
<circle cx="1081.2480333989556" cy="395.7157359768671" r="76.15260942029967" fill="#a7b2e4" transform="matrix(1,0,0,1,-6.180026531219482,0)" style="transform:matrix(1, 0, 0, 1, -6.18003, 0);animation-play-state:paused" ></circle>
<circle cx="1157.4006428192554" cy="390.671055690734" r="69.98070366304117" fill="#a7b2e4" transform="matrix(1,0,0,1,-4.600756645202637,0)" style="transform:matrix(1, 0, 0, 1, -4.60076, 0);animation-play-state:paused" ></circle>
<circle cx="1227.3813464822965" cy="393.0601850449731" r="58.48671747781542" fill="#a7b2e4" transform="matrix(1,0,0,1,-3.088648796081543,0)" style="transform:matrix(1, 0, 0, 1, -3.08865, 0);animation-play-state:paused" ></circle>
<circle cx="1285.8680639601118" cy="350.93844131908304" r="92.57974309657259" fill="#a7b2e4" transform="matrix(1,0,0,1,-1.8546791076660156,0)" style="transform:matrix(1, 0, 0, 1, -1.85468, 0);animation-play-state:paused" ></circle>
<circle cx="1378.4478070566845" cy="389.162789085441" r="48.97182151311883" fill="#a7b2e4" transform="matrix(1,0,0,1,-0.9663257598876953,0)" style="transform:matrix(1, 0, 0, 1, -0.966326, 0);animation-play-state:paused" ></circle>
<circle cx="1427.4196285698033" cy="397.29912368584644" r="39.52933843510702" fill="#a7b2e4" transform="matrix(1,0,0,1,-0.3967552185058594,0)" style="transform:matrix(1, 0, 0, 1, -0.396755, 0);animation-play-state:paused" ></circle>
<circle cx="0" cy="400.2302191650597" r="92.30815069578358" fill="#c1c4ea" transform="matrix(1,0,0,1,0,0)" style="transform:matrix(1, 0, 0, 1, 0, 0);animation-play-state:paused" ></circle>
<circle cx="92.30815069578358" cy="451.92114536425163" r="56.92598400184733" fill="#c1c4ea" transform="matrix(1,0,0,1,-0.14621886610984802,0)" style="transform:matrix(1, 0, 0, 1, -0.146219, 0);animation-play-state:paused" ></circle>
<circle cx="149.2341346976309" cy="428.3147381072105" r="88.16917295248871" fill="#c1c4ea" transform="matrix(1,0,0,1,-0.6449503302574158,0)" style="transform:matrix(1, 0, 0, 1, -0.64495, 0);animation-play-state:paused" ></circle>
<circle cx="237.40330765011961" cy="459.5246497938597" r="65.75015927031058" fill="#c1c4ea" transform="matrix(1,0,0,1,-1.600266933441162,0)" style="transform:matrix(1, 0, 0, 1, -1.60027, 0);animation-play-state:paused" ></circle>
<circle cx="303.1534669204302" cy="473.39764457072124" r="56.34382687393008" fill="#c1c4ea" transform="matrix(1,0,0,1,-3.0886495113372803,0)" style="transform:matrix(1, 0, 0, 1, -3.08865, 0);animation-play-state:paused" ></circle>
<circle cx="359.4972937943603" cy="488.1496138997488" r="40.202687146793316" fill="#c1c4ea" transform="matrix(1,0,0,1,-5,0)" style="transform:matrix(1, 0, 0, 1, -5, 0);animation-play-state:paused" ></circle>
<circle cx="399.6999809411536" cy="488.54172714367706" r="45.120012145387975" fill="#c1c4ea" transform="matrix(1,0,0,1,-6.911351203918457,0)" style="transform:matrix(1, 0, 0, 1, -6.91135, 0);animation-play-state:paused" ></circle>
<circle cx="444.8199930865416" cy="477.44922381050077" r="80.17458600039042" fill="#c1c4ea" transform="matrix(1,0,0,1,-8.39973258972168,0)" style="transform:matrix(1, 0, 0, 1, -8.39973, 0);animation-play-state:paused" ></circle>
<circle cx="524.994579086932" cy="496.5199053872765" r="52.16015460808905" fill="#c1c4ea" transform="matrix(1,0,0,1,-9.355050086975098,0)" style="transform:matrix(1, 0, 0, 1, -9.35505, 0);animation-play-state:paused" ></circle>
<circle cx="577.1547336950212" cy="504.77289768332616" r="33.48528651589589" fill="#c1c4ea" transform="matrix(1,0,0,1,-9.853780746459961,0)" style="transform:matrix(1, 0, 0, 1, -9.85378, 0);animation-play-state:paused" ></circle>
<circle cx="610.6400202109171" cy="503.98182063641985" r="55.20335641443008" fill="#c1c4ea" transform="matrix(1,0,0,1,-10,0)" style="transform:matrix(1, 0, 0, 1, -10, 0);animation-play-state:paused" ></circle>
<circle cx="665.8433766253472" cy="509.3872239768916" r="53.50343905716875" fill="#c1c4ea" transform="matrix(1,0,0,1,-9.853780746459961,0)" style="transform:matrix(1, 0, 0, 1, -9.85378, 0);animation-play-state:paused" ></circle>
<circle cx="719.346815682516" cy="505.69280103656973" r="83.10716321720156" fill="#c1c4ea" transform="matrix(1,0,0,1,-9.355049133300781,0)" style="transform:matrix(1, 0, 0, 1, -9.35505, 0);animation-play-state:paused" ></circle>
<circle cx="802.4539788997175" cy="498.43945169182723" r="59.84769597394493" fill="#c1c4ea" transform="matrix(1,0,0,1,-8.399733543395996,0)" style="transform:matrix(1, 0, 0, 1, -8.39973, 0);animation-play-state:paused" ></circle>
<circle cx="862.3016748736625" cy="493.05319081079426" r="56.96949328956523" fill="#c1c4ea" transform="matrix(1,0,0,1,-6.911350727081299,0)" style="transform:matrix(1, 0, 0, 1, -6.91135, 0);animation-play-state:paused" ></circle>
<circle cx="919.2711681632277" cy="484.16858782980916" r="64.63567072355028" fill="#c1c4ea" transform="matrix(1,0,0,1,-5,0)" style="transform:matrix(1, 0, 0, 1, -5, 0);animation-play-state:paused" ></circle>
<circle cx="983.9068388867779" cy="465.37943559699397" r="86.29150692876415" fill="#c1c4ea" transform="matrix(1,0,0,1,-3.088648796081543,0)" style="transform:matrix(1, 0, 0, 1, -3.08865, 0);animation-play-state:paused" ></circle>
<circle cx="1070.198345815542" cy="470.6420572184848" r="59.32462267651827" fill="#c1c4ea" transform="matrix(1,0,0,1,-1.600266456604004,0)" style="transform:matrix(1, 0, 0, 1, -1.60027, 0);animation-play-state:paused" ></circle>
<circle cx="1129.5229684920603" cy="446.54645182990436" r="82.15660504699227" fill="#c1c4ea" transform="matrix(1,0,0,1,-0.6449508666992188,0)" style="transform:matrix(1, 0, 0, 1, -0.644951, 0);animation-play-state:paused" ></circle>
<circle cx="1211.6795735390526" cy="441.28772416732596" r="75.05094890619863" fill="#c1c4ea" transform="matrix(1,0,0,1,-0.14621925354003906,0)" style="transform:matrix(1, 0, 0, 1, -0.146219, 0);animation-play-state:paused" ></circle>
<circle cx="1286.7305224452512" cy="446.67494121697877" r="60.64241897590939" fill="#c1c4ea" transform="matrix(1,0,0,1,0,0)" style="transform:matrix(1, 0, 0, 1, 0, 0);animation-play-state:paused" ></circle>
<circle cx="1347.3729414211605" cy="436.0296807482249" r="64.226888313952" fill="#c1c4ea" transform="matrix(1,0,0,1,-0.14621886610984802,0)" style="transform:matrix(1, 0, 0, 1, -0.146219, 0);animation-play-state:paused" ></circle>
<circle cx="0" cy="479.6095637147987" r="77.82536357100108" fill="#d8d6f0" transform="matrix(1,0,0,1,0,0)" style="transform:matrix(1, 0, 0, 1, 0, 0);animation-play-state:paused" ></circle>
<circle cx="77.82536357100108" cy="509.1954500202051" r="60.0081709379888" fill="#d8d6f0" transform="matrix(1,0,0,1,-0.2146373838186264,0)" style="transform:matrix(1, 0, 0, 1, -0.214637, 0);animation-play-state:paused" ></circle>
<circle cx="137.83353450898989" cy="497.02721200667486" r="79.31738512307173" fill="#d8d6f0" transform="matrix(1,0,0,1,-0.9663266539573669,0)" style="transform:matrix(1, 0, 0, 1, -0.966327, 0);animation-play-state:paused" ></circle>
<circle cx="217.15091963206163" cy="536.9771557019618" r="44.01211267128182" fill="#d8d6f0" transform="matrix(1,0,0,1,-2.4294822216033936,0)" style="transform:matrix(1, 0, 0, 1, -2.42948, 0);animation-play-state:paused" ></circle>
<circle cx="261.16303230334347" cy="520.9868333280621" r="70.17915205272634" fill="#d8d6f0" transform="matrix(1,0,0,1,-4.600759983062744,0)" style="transform:matrix(1, 0, 0, 1, -4.60076, 0);animation-play-state:paused" ></circle>
<circle cx="331.3421843560698" cy="530.9420984880733" r="68.07172923685722" fill="#d8d6f0" transform="matrix(1,0,0,1,-6.911355018615723,0)" style="transform:matrix(1, 0, 0, 1, -6.91136, 0);animation-play-state:paused" ></circle>
<circle cx="399.41391359292703" cy="536.2517374493625" r="73.75497989599603" fill="#d8d6f0" transform="matrix(1,0,0,1,-8.632269859313965,0)" style="transform:matrix(1, 0, 0, 1, -8.63227, 0);animation-play-state:paused" ></circle>
<circle cx="473.16889348892306" cy="557.3059998991652" r="42.569959585982346" fill="#d8d6f0" transform="matrix(1,0,0,1,-9.603246688842773,0)" style="transform:matrix(1, 0, 0, 1, -9.60325, 0);animation-play-state:paused" ></circle>
<circle cx="515.7388530749054" cy="552.1668714486184" r="70.89226967418956" fill="#d8d6f0" transform="matrix(1,0,0,1,-9.977882385253906,0)" style="transform:matrix(1, 0, 0, 1, -9.97788, 0);animation-play-state:paused" ></circle>
<circle cx="586.631122749095" cy="561.4946344465554" r="67.95213089165672" fill="#d8d6f0" transform="matrix(1,0,0,1,-9.908177375793457,0)" style="transform:matrix(1, 0, 0, 1, -9.90818, 0);animation-play-state:paused" ></circle>
<circle cx="654.5832536407516" cy="570.6002295476926" r="48.06564874941781" fill="#d8d6f0" transform="matrix(1,0,0,1,-9.355046272277832,0)" style="transform:matrix(1, 0, 0, 1, -9.35505, 0);animation-play-state:paused" ></circle>
<circle cx="702.6489023901695" cy="570.5205646806395" r="71.82141312086924" fill="#d8d6f0" transform="matrix(1,0,0,1,-8.14531421661377,0)" style="transform:matrix(1, 0, 0, 1, -8.14531, 0);animation-play-state:paused" ></circle>
<circle cx="774.4703155110387" cy="561.962033446679" r="68.68285732734418" fill="#d8d6f0" transform="matrix(1,0,0,1,-6.180017471313477,0)" style="transform:matrix(1, 0, 0, 1, -6.18002, 0);animation-play-state:paused" ></circle>
<circle cx="843.1531728383829" cy="550.3366056615203" r="80.54319738018467" fill="#d8d6f0" transform="matrix(1,0,0,1,-3.8199596405029297,0)" style="transform:matrix(1, 0, 0, 1, -3.81996, 0);animation-play-state:paused" ></circle>
<circle cx="923.6963702185676" cy="551.901833075623" r="49.89013058327469" fill="#d8d6f0" transform="matrix(1,0,0,1,-1.8546695709228516,0)" style="transform:matrix(1, 0, 0, 1, -1.85467, 0);animation-play-state:paused" ></circle>
<circle cx="973.5865008018422" cy="550.1478882701578" r="44.76002919501779" fill="#d8d6f0" transform="matrix(1,0,0,1,-0.6449451446533203,0)" style="transform:matrix(1, 0, 0, 1, -0.644945, 0);animation-play-state:paused" ></circle>
<circle cx="1018.34652999686" cy="535.8202472556655" r="63.1033096933546" fill="#d8d6f0" transform="matrix(1,0,0,1,-0.09181976318359375,0)" style="transform:matrix(1, 0, 0, 1, -0.0918198, 0);animation-play-state:paused" ></circle>
<circle cx="1081.4498396902145" cy="526.0541095860974" r="67.05997417731112" fill="#d8d6f0" transform="matrix(1,0,0,1,-0.022118574008345604,0)" style="transform:matrix(1, 0, 0, 1, -0.0221186, 0);animation-play-state:paused" ></circle>
<circle cx="1148.5098138675257" cy="542.9296598566685" r="36.76621792936765" fill="#d8d6f0" transform="matrix(1,0,0,1,-0.3967595100402832,0)" style="transform:matrix(1, 0, 0, 1, -0.39676, 0);animation-play-state:paused" ></circle>
<circle cx="1185.2760317968934" cy="528.1221836280348" r="50.854421741627284" fill="#d8d6f0" transform="matrix(1,0,0,1,-1.367743968963623,0)" style="transform:matrix(1, 0, 0, 1, -1.36774, 0);animation-play-state:paused" ></circle>
<circle cx="1236.1304535385207" cy="527.6580166193618" r="46.656526278237216" fill="#d8d6f0" transform="matrix(1,0,0,1,-3.0886662006378174,0)" style="transform:matrix(1, 0, 0, 1, -3.08867, 0);animation-play-state:paused" ></circle>
<circle cx="1282.7869798167578" cy="518.4032403533225" r="51.80948694217113" fill="#d8d6f0" transform="matrix(1,0,0,1,-5.399263381958008,0)" style="transform:matrix(1, 0, 0, 1, -5.39926, 0);animation-play-state:paused" ></circle>
<circle cx="1334.596466758929" cy="473.11673454344026" r="87.2475959522426" fill="#d8d6f0" transform="matrix(1,0,0,1,-7.570536136627197,0)" style="transform:matrix(1, 0, 0, 1, -7.57054, 0);animation-play-state:paused" ></circle>
<circle cx="1421.8440627111715" cy="526.7447864776509" r="35.632587477070985" fill="#d8d6f0" transform="matrix(1,0,0,1,-9.033683776855469,0)" style="transform:matrix(1, 0, 0, 1, -9.03368, 0);animation-play-state:paused" ></circle>
<circle cx="0" cy="531.5727795508792" r="86.18935037426738" fill="#edeaf7" transform="matrix(1,0,0,1,0,0)" style="transform:matrix(1, 0, 0, 1, 0, 0);animation-play-state:paused" ></circle>
<circle cx="86.18935037426738" cy="595.9864019148972" r="37.20650693933864" fill="#edeaf7" transform="matrix(1,0,0,1,-0.297871857881546,0)" style="transform:matrix(1, 0, 0, 1, -0.297872, 0);animation-play-state:paused" ></circle>
<circle cx="123.39585731360602" cy="601.4116772163617" r="34.16228054694898" fill="#edeaf7" transform="matrix(1,0,0,1,-1.3677345514297485,0)" style="transform:matrix(1, 0, 0, 1, -1.36773, 0);animation-play-state:paused" ></circle>
<circle cx="157.558137860555" cy="574.0499244208343" r="66.02205467456396" fill="#edeaf7" transform="matrix(1,0,0,1,-3.4464633464813232,0)" style="transform:matrix(1, 0, 0, 1, -3.44646, 0);animation-play-state:paused" ></circle>
<circle cx="223.58019253511895" cy="582.2410394706922" r="65.36209630787378" fill="#edeaf7" transform="matrix(1,0,0,1,-6.1800312995910645,0)" style="transform:matrix(1, 0, 0, 1, -6.18003, 0);animation-play-state:paused" ></circle>
<circle cx="288.94228884299275" cy="573.8535409898064" r="88.31834847519386" fill="#edeaf7" transform="matrix(1,0,0,1,-8.399735450744629,0)" style="transform:matrix(1, 0, 0, 1, -8.39974, 0);animation-play-state:paused" ></circle>
<circle cx="377.2606373181866" cy="613.036175175074" r="40.88801930245309" fill="#edeaf7" transform="matrix(1,0,0,1,-9.603246688842773,0)" style="transform:matrix(1, 0, 0, 1, -9.60325, 0);animation-play-state:paused" ></circle>
<circle cx="418.14865662063966" cy="613.9185881487304" r="45.30404399281364" fill="#edeaf7" transform="matrix(1,0,0,1,-9.9945707321167,0)" style="transform:matrix(1, 0, 0, 1, -9.99457, 0);animation-play-state:paused" ></circle>
<circle cx="463.4527006134533" cy="621.475549123561" r="35.061540931491585" fill="#edeaf7" transform="matrix(1,0,0,1,-9.785361289978027,0)" style="transform:matrix(1, 0, 0, 1, -9.78536, 0);animation-play-state:paused" ></circle>
<circle cx="498.5142415449449" cy="606.2975791748221" r="88.55134034809726" fill="#edeaf7" transform="matrix(1,0,0,1,-8.843363761901855,0)" style="transform:matrix(1, 0, 0, 1, -8.84336, 0);animation-play-state:paused" ></circle>
<circle cx="587.0655818930422" cy="624.9567202430368" r="59.58549782726001" fill="#edeaf7" transform="matrix(1,0,0,1,-6.911342620849609,0)" style="transform:matrix(1, 0, 0, 1, -6.91134, 0);animation-play-state:paused" ></circle>
<circle cx="646.6510797203023" cy="629.7565938474864" r="82.10345668706256" fill="#edeaf7" transform="matrix(1,0,0,1,-4.205990791320801,0)" style="transform:matrix(1, 0, 0, 1, -4.20599, 0);animation-play-state:paused" ></circle>
<circle cx="728.7545364073649" cy="627.8955921810291" r="88.37576412015417" fill="#edeaf7" transform="matrix(1,0,0,1,-1.8546714782714844,0)" style="transform:matrix(1, 0, 0, 1, -1.85467, 0);animation-play-state:paused" ></circle>
<circle cx="817.130300527519" cy="613.5904798893837" r="90.84886225087054" fill="#edeaf7" transform="matrix(1,0,0,1,-0.5121488571166992,0)" style="transform:matrix(1, 0, 0, 1, -0.512149, 0);animation-play-state:paused" ></circle>
<circle cx="907.9791627783895" cy="604.0761414065997" r="78.23315412287432" fill="#edeaf7" transform="matrix(1,0,0,1,-0.022116661071777344,0)" style="transform:matrix(1, 0, 0, 1, -0.0221167, 0);animation-play-state:paused" ></circle>
<circle cx="986.2123169012639" cy="610.1674437204198" r="46.613750479877595" fill="#edeaf7" transform="matrix(1,0,0,1,-0.14622078835964203,0)" style="transform:matrix(1, 0, 0, 1, -0.146221, 0);animation-play-state:paused" ></circle>
<circle cx="1032.8260673811415" cy="607.4448544100774" r="44.83219470275649" fill="#edeaf7" transform="matrix(1,0,0,1,-0.9663317203521729,0)" style="transform:matrix(1, 0, 0, 1, -0.966332, 0);animation-play-state:paused" ></circle>
<circle cx="1077.6582620838979" cy="592.657284189383" r="61.0656477538017" fill="#edeaf7" transform="matrix(1,0,0,1,-2.749058246612549,0)" style="transform:matrix(1, 0, 0, 1, -2.74906, 0);animation-play-state:paused" ></circle>
<circle cx="1138.7239098376995" cy="582.1824087268487" r="65.96540518799668" fill="#edeaf7" transform="matrix(1,0,0,1,-5.399258613586426,0)" style="transform:matrix(1, 0, 0, 1, -5.39926, 0);animation-play-state:paused" ></circle>
<circle cx="1204.689315025696" cy="591.07436376089" r="47.92317427125241" fill="#edeaf7" transform="matrix(1,0,0,1,-7.868867874145508,0)" style="transform:matrix(1, 0, 0, 1, -7.86887, 0);animation-play-state:paused" ></circle>
<circle cx="1252.6124892969485" cy="600.4596889060497" r="34.51327718470146" fill="#edeaf7" transform="matrix(1,0,0,1,-9.355055809020996,0)" style="transform:matrix(1, 0, 0, 1, -9.35506, 0);animation-play-state:paused" ></circle>
<circle cx="1287.12576648165" cy="548.937782760909" r="81.082032963419" fill="#edeaf7" transform="matrix(1,0,0,1,-9.949310302734375,0)" style="transform:matrix(1, 0, 0, 1, -9.94931, 0);animation-play-state:paused" ></circle>
<circle cx="1368.207799445069" cy="587.9995863381037" r="39.0408118494287" fill="#edeaf7" transform="matrix(1,0,0,1,-9.90817642211914,0)" style="transform:matrix(1, 0, 0, 1, -9.90818, 0);animation-play-state:paused" ></circle>
<circle cx="1407.2486112944978" cy="586.1972120409546" r="38.35274201912861" fill="#edeaf7" transform="matrix(1,0,0,1,-9.20394515991211,0)" style="transform:matrix(1, 0, 0, 1, -9.20395, 0);animation-play-state:paused" ></circle>
<circle cx="0" cy="622.7157149345304" r="61.903570887891306" fill="#ffffff" transform="matrix(1,0,0,1,0,0)" style="transform:matrix(1, 0, 0, 1, 0, 0);animation-play-state:paused" ></circle>
<circle cx="61.903570887891306" cy="619.9883858845061" r="70.57268669761334" fill="#ffffff" transform="matrix(1,0,0,1,-0.3967548906803131,0)" style="transform:matrix(1, 0, 0, 1, -0.396755, 0);animation-play-state:paused" ></circle>
<circle cx="132.47625758550464" cy="649.9304707765268" r="48.66349075554072" fill="#ffffff" transform="matrix(1,0,0,1,-1.8546782732009888,0)" style="transform:matrix(1, 0, 0, 1, -1.85468, 0);animation-play-state:paused" ></circle>
<circle cx="181.13974834104536" cy="615.0928637051834" r="92.89201841952912" fill="#ffffff" transform="matrix(1,0,0,1,-4.60075569152832,0)" style="transform:matrix(1, 0, 0, 1, -4.60076, 0);animation-play-state:paused" ></circle>
<circle cx="274.0317667605745" cy="673.0589014226733" r="33.319153337803755" fill="#ffffff" transform="matrix(1,0,0,1,-7.57051944732666,0)" style="transform:matrix(1, 0, 0, 1, -7.57052, 0);animation-play-state:paused" ></circle>
<circle cx="307.35092009837825" cy="656.1497754179452" r="61.89443127091368" fill="#ffffff" transform="matrix(1,0,0,1,-9.355050086975098,0)" style="transform:matrix(1, 0, 0, 1, -9.35505, 0);animation-play-state:paused" ></circle>
<circle cx="369.24535136929194" cy="677.2449465609549" r="35.83665760744585" fill="#ffffff" transform="matrix(1,0,0,1,-9.977882385253906,0)" style="transform:matrix(1, 0, 0, 1, -9.97788, 0);animation-play-state:paused" ></circle>
<circle cx="405.08200897673777" cy="654.9189417639392" r="86.18058715032895" fill="#ffffff" transform="matrix(1,0,0,1,-9.78536319732666,0)" style="transform:matrix(1, 0, 0, 1, -9.78536, 0);animation-play-state:paused" ></circle>
<circle cx="491.26259612706673" cy="681.2868942133314" r="46.64387783984896" fill="#ffffff" transform="matrix(1,0,0,1,-8.632266998291016,0)" style="transform:matrix(1, 0, 0, 1, -8.63227, 0);animation-play-state:paused" ></circle>
<circle cx="537.9064739669157" cy="687.1549200570372" r="38.61985773869247" fill="#ffffff" transform="matrix(1,0,0,1,-6.180026531219482,0)" style="transform:matrix(1, 0, 0, 1, -6.18003, 0);animation-play-state:paused" ></circle>
<circle cx="576.5263317056081" cy="685.933219508957" r="59.158688375447205" fill="#ffffff" transform="matrix(1,0,0,1,-3.088648796081543,0)" style="transform:matrix(1, 0, 0, 1, -3.08865, 0);animation-play-state:paused" ></circle>
<circle cx="635.6850200810553" cy="691.4137726947963" r="67.19847244978014" fill="#ffffff" transform="matrix(1,0,0,1,-0.9663257598876953,0)" style="transform:matrix(1, 0, 0, 1, -0.966326, 0);animation-play-state:paused" ></circle>
<circle cx="702.8834925308355" cy="694.1237262328725" r="82.3335814831281" fill="#ffffff" transform="matrix(1,0,0,1,-0.09182167053222656,0)" style="transform:matrix(1, 0, 0, 1, -0.0918217, 0);animation-play-state:paused" ></circle>
<circle cx="785.2170740139636" cy="684.3725956333113" r="70.31210510935277" fill="#ffffff" transform="matrix(1,0,0,1,-0.09182170033454895,0)" style="transform:matrix(1, 0, 0, 1, -0.0918217, 0);animation-play-state:paused" ></circle>
<circle cx="855.5291791233163" cy="677.0863879721676" r="65.69418713267905" fill="#ffffff" transform="matrix(1,0,0,1,-0.9663257002830505,0)" style="transform:matrix(1, 0, 0, 1, -0.966326, 0);animation-play-state:paused" ></circle>
<circle cx="921.2233662559954" cy="670.6897500793144" r="62.860824619661514" fill="#ffffff" transform="matrix(1,0,0,1,-3.0886495113372803,0)" style="transform:matrix(1, 0, 0, 1, -3.08865, 0);animation-play-state:paused" ></circle>
<circle cx="984.084190875657" cy="658.0943306036968" r="73.54690427394215" fill="#ffffff" transform="matrix(1,0,0,1,-6.180027961730957,0)" style="transform:matrix(1, 0, 0, 1, -6.18003, 0);animation-play-state:paused" ></circle>
<circle cx="1057.631095149599" cy="668.3247627816157" r="43.56549521589055" fill="#ffffff" transform="matrix(1,0,0,1,-8.632266998291016,0)" style="transform:matrix(1, 0, 0, 1, -8.63227, 0);animation-play-state:paused" ></circle>
<circle cx="1101.1965903654896" cy="648.7320732848164" r="65.6927760491351" fill="#ffffff" transform="matrix(1,0,0,1,-9.785362243652344,0)" style="transform:matrix(1, 0, 0, 1, -9.78536, 0);animation-play-state:paused" ></circle>
<circle cx="1166.8893664146246" cy="670.1501394219712" r="31.581693474468366" fill="#ffffff" transform="matrix(1,0,0,1,-9.977882385253906,0)" style="transform:matrix(1, 0, 0, 1, -9.97788, 0);animation-play-state:paused" ></circle>
<circle cx="1198.471059889093" cy="645.7456302815582" r="56.593436634489336" fill="#ffffff" transform="matrix(1,0,0,1,-9.355049133300781,0)" style="transform:matrix(1, 0, 0, 1, -9.35505, 0);animation-play-state:paused" ></circle>
<circle cx="1255.0644965235824" cy="618.7460858903438" r="77.85751382593727" fill="#ffffff" transform="matrix(1,0,0,1,-7.57051944732666,0)" style="transform:matrix(1, 0, 0, 1, -7.57052, 0);animation-play-state:paused" ></circle>
<circle cx="1332.9220103495197" cy="656.3130365210266" r="35.63144963756774" fill="#ffffff" transform="matrix(1,0,0,1,-4.600756645202637,0)" style="transform:matrix(1, 0, 0, 1, -4.60076, 0);animation-play-state:paused" ></circle>
<circle cx="1368.5534599870875" cy="598.287811547873" r="81.95376515454704" fill="#ffffff" transform="matrix(1,0,0,1,-1.8546791076660156,0)" style="transform:matrix(1, 0, 0, 1, -1.85468, 0);animation-play-state:paused" ></circle>
<circle cx="1450.5072251416345" cy="650.7056412525926" r="34.330889652368136" fill="#ffffff" transform="matrix(1,0,0,1,-0.3967552185058594,0)" style="transform:matrix(1, 0, 0, 1, -0.396755, 0);animation-play-state:paused" ></circle></g></svg>